<?xml version="1.0" encoding="UTF-8"?>
<svg id="Layer_1" data-name="Layer 1" xmlns="http://www.w3.org/2000/svg" xmlns:xlink="http://www.w3.org/1999/xlink" viewBox="0 0 1850.77 624.86">
  <defs>
    <style>
      .cls-1 {
        fill: none;
      }

      .cls-2 {
        clip-path: url(#clippath-1);
      }

      .cls-3 {
        fill: #1d1d1b;
      }

      .cls-4 {
        clip-path: url(#clippath);
      }
    </style>
    <clipPath id="clippath">
      <rect class="cls-1" y="0" width="1850.77" height="624.86"/>
    </clipPath>
    <clipPath id="clippath-1">
      <rect class="cls-1" y="0" width="1850.77" height="624.86"/>
    </clipPath>
  </defs>
  <g id="Ilustración_9" data-name="Ilustración 9">
    <g class="cls-4">
      <g class="cls-2">
        <path class="cls-3" d="M190.6,512.63c-8.16-54.07-16.34-108.13-24.54-162.19l-13.36-97.98c-40.26,5.85-80.45,12.03-120.61,18.54C20.27,209.09,10.36,146.76,0,84.59,217.15,46.8,435.71,20.55,655.63,5.82c3.29,64.53,6.57,129.06,9.84,193.6-11.07.83-16.6,1.25-27.67,2.13-107.02,6.02-213.75,14.72-320.33,26.11,4.12,43.76,8.26,87.52,12.41,131.27,6.87,62.68,14.41,125.27,22.57,187.8,2.17,14.29,3.25,21.44,5.4,35.73-15.28,2.58-22.92,3.89-38.18,6.58-38.85,5.34-77.44,12.4-116.28,17.69-5.52-31.13-8.56-62.79-12.78-94.1"/>
        <path class="cls-3" d="M399.46,573.39c-3.33-40.32-6.64-80.64-9.95-120.96-2.39-24.25-3.58-36.37-5.97-60.62-2.26-24.67-4.95-49.54-8.81-73.95-3.42-21.58-6.08-43.52-10.05-65.08,40.19-11.76,80.15-18.01,121.21-16.56,43.62,1.54,82.99,26.75,85.16,74.7.09,1.35.13,2.03.22,3.38,2.52,36.44-12.33,69.29-37.84,94.36,27.52,46.21,44.02,98.05,72.29,143.97-26.84,3.55-53.93,5.49-80.9,7.91-15.66-27.89-30.54-56.94-49.38-82.9-1.11-1.36-3.32-4.09-4.39-4.97-.17,3.89,1.36,28.03,2.1,36.7,3.37,39.99,8.14,56.08,8.38,58.97-27.36,1.61-54.73,3.23-82.08,5.05M449.72,315.82c1.23,14.45,1.85,21.68,3.08,36.13.73,6.15,1.09,9.22,1.82,15.37,1.97-.65,27.02-3.7,25.16-26.83-.06-.77-.09-1.16-.15-1.93-2.13-26.5-29.82-27.61-30.83-27.52.37,1.91.55,2.86.92,4.77"/>
        <path class="cls-3" d="M858.41,491.96c-4.58-24.27-9.22-48.54-13.92-72.79-25.53,1.18-51.16,1.95-76.63,4.11-5.91,27.38-11.73,54.79-17.45,82.21-3.55,17.71-5.3,26.56-8.78,44.28-.63.02-.95.03-1.58.06-41.26,1.32-82.61,3.45-123.9,3.47,4.9-24.92,9.86-49.83,14.87-74.73,8.11-39.57,16.25-79.08,25.41-118.42,19.15-80.03,38.85-159.75,63.27-238.36,11.5-35.79,23.18-71.52,35.13-107.17,59.48-3.21,118.96-5.66,178.51-7.37,8.06,40.36,14.95,81.12,21.24,121.68,6.33,40.91,11.48,82.28,17.01,123.3,7.51,55.73,14.54,111.78,23.9,167.38,8.17,45.77,16.1,91.58,23.84,137.42-49.42-2.15-98.83-3.74-148.29-4.79-5-24.12-7.53-36.17-12.64-60.28M840.05,295.22c-6.79-26.05-13.63-52.09-20.53-78.12-8.41,26.31-16.7,52.66-24.87,79.05,18.16-.44,27.24-.63,45.4-.93"/>
        <path class="cls-3" d="M1055.95,557.98c-12.58-71.18-23.09-142.74-34.22-214.16,99.24-49.27,199.75-95.59,301.65-139.1-99.28-6.71-198.74-10.86-298.23-12.45.19-64.06-3.33-128.28-5.96-192.27,167.48,2.43,334.68,12.29,501.4,28.33-6.12,61.96-12.24,123.92-18.36,185.88-105.18,55.03-208.47,113.2-309.99,174.73,205.21,6.66,410.71,30.2,613.36,62.47-2.51,21.06,6.82-43.2-2.61,16.49-7.45,52.32-14.91,104.64-22.39,156.96-142.38-20.05-284.55-39.29-427.98-50.43-71.46-6.14-142.94-11.05-214.56-14.75-27.38-.92-54.75-.83-82.12-1.7"/>
        <path class="cls-3" d="M1538.63,253.32c1.27-11.86,2.86-20.59,3.13-23.17,2.78-26.34,4.43-47.65,6.21-65.15,3.26-32.08,10-67.51,31.57-92.2,29.76-34.05,90.33-44.36,132.06-38,78.28,11.94,143.26,55.71,138.97,143.94-.21,5.75-3.24,24.74-6.87,47.81-5.2,33.06-10.28,66.58-18.43,99.1-22.27,79.15-86.59,96.52-161.74,86.29-85.75-11.68-134.02-73.62-124.89-158.62M1674.51,297.1c.54.07.81.11,1.34.18,30.35,2.81,38.15-37.66,40.92-60.03,1.31-7.58,1.97-11.37,3.28-18.95,3.11-22.46,16.13-81.46-20.44-86.58-27.3-3.82-34.17,15.51-36.44,33.55l-10.55,84c-.97,7.73-3.55,44.51,21.9,47.84"/>
      </g>
    </g>
  </g>
</svg>